<svg width="32" height="32" viewBox="0 0 32 32" fill="none" xmlns="http://www.w3.org/2000/svg">
<rect width="32" height="32" rx="8" fill="#212121"/>
<path d="M15.8635 27.8027C14.8609 27.8027 13.8902 27.7174 12.9515 27.5467C12.0129 27.3974 11.1275 27.1627 10.2955 26.8427C9.46354 26.5227 8.71687 26.128 8.05554 25.6587C7.7782 25.4667 7.57554 25.232 7.44754 24.9547C7.34087 24.6774 7.30887 24.4107 7.35154 24.1547C7.41554 23.8774 7.53287 23.6427 7.70354 23.4507C7.89554 23.2587 8.11954 23.1414 8.37554 23.0987C8.63154 23.056 8.90887 23.1414 9.20754 23.3547C10.1889 24.016 11.2129 24.496 12.2795 24.7947C13.3675 25.0934 14.5622 25.2427 15.8635 25.2427C17.7409 25.2427 19.1169 24.9014 19.9915 24.2187C20.8875 23.536 21.3355 22.64 21.3355 21.5307C21.3355 20.6134 21.0155 19.8987 20.3755 19.3867C19.7355 18.8534 18.6582 18.4374 17.1435 18.1387L13.7515 17.4347C11.7462 17.008 10.2422 16.304 9.23954 15.3227C8.2582 14.3414 7.76754 13.0294 7.76754 11.3867C7.76754 10.384 7.9702 9.47735 8.37554 8.66669C8.78087 7.83469 9.35687 7.12002 10.1035 6.52269C10.8502 5.92535 11.7249 5.46669 12.7275 5.14669C13.7515 4.82669 14.8822 4.66669 16.1195 4.66669C17.4422 4.66669 18.6795 4.84802 19.8315 5.21069C21.0049 5.57335 22.0609 6.10669 22.9995 6.81069C23.2555 7.00269 23.4262 7.23735 23.5115 7.51469C23.5969 7.77069 23.6075 8.02669 23.5435 8.28269C23.5009 8.53869 23.3835 8.75202 23.1915 8.92269C23.0209 9.09335 22.7969 9.18935 22.5195 9.21069C22.2635 9.23202 21.9755 9.13602 21.6555 8.92269C20.8022 8.32535 19.9275 7.89869 19.0315 7.64269C18.1355 7.36535 17.1542 7.22669 16.0875 7.22669C14.9995 7.22669 14.0502 7.39735 13.2395 7.73869C12.4502 8.08002 11.8315 8.56002 11.3835 9.17869C10.9569 9.77602 10.7435 10.48 10.7435 11.2907C10.7435 12.272 11.0422 13.04 11.6395 13.5947C12.2369 14.1494 13.2395 14.576 14.6475 14.8747L18.0075 15.5467C20.1409 15.9947 21.7195 16.688 22.7435 17.6267C23.7889 18.544 24.3115 19.7814 24.3115 21.3387C24.3115 22.32 24.1089 23.2054 23.7035 23.9947C23.3195 24.784 22.7649 25.4667 22.0395 26.0427C21.3142 26.5974 20.4289 27.0347 19.3835 27.3547C18.3382 27.6534 17.1649 27.8027 15.8635 27.8027Z" fill="#EDE8D8"/>
<path d="M5.33325 16H26.6666" stroke="#EDE8D8" stroke-width="2" stroke-linecap="round"/>
</svg>
