<svg width="48" height="48" viewBox="0 0 48 48" fill="none" xmlns="http://www.w3.org/2000/svg">
<path d="M23.131 8.48299L7.28572 17.286C6.72532 17.5973 6.72532 18.4032 7.28572 18.7145L23.131 27.5174C23.6714 27.8176 24.3286 27.8176 24.869 27.5174L41.1412 18.4773C41.5156 18.2694 41.5156 17.7311 41.1412 17.5232L24.869 8.48299C24.3286 8.18275 23.6714 8.18275 23.131 8.48299Z" stroke="#EDE8D8" stroke-width="4" stroke-linecap="round" stroke-linejoin="round"/>
<path d="M11 21.0002L10.263 30.5814C10.1117 32.5486 11.4187 34.328 13.3209 34.8522C14.5671 35.1954 15.9375 35.6036 17 36.0002C18.5293 36.571 20.2252 37.5316 21.5648 38.3684C23.0454 39.2932 24.9546 39.2932 26.4354 38.3682C27.7748 37.5316 29.4708 36.571 31 36.0002C32.0624 35.6036 33.433 35.1954 34.6792 34.852C36.5814 34.328 37.8884 32.5486 37.7372 30.5814L37 21.0002" stroke="#EDE8D8" stroke-width="4" stroke-linecap="round" stroke-linejoin="round"/>
<path d="M23 21.0002L18.0154 23.8486C16.7691 24.5606 16 25.886 16 27.3214V40.0002" stroke="#EDE8D8" stroke-width="4" stroke-linecap="round" stroke-linejoin="round"/>
</svg>
