<svg width="48" height="48" viewBox="0 0 48 48" fill="none" xmlns="http://www.w3.org/2000/svg">
<path d="M18 26H30" stroke="#EDE8D8" stroke-width="4" stroke-linecap="round" stroke-linejoin="round"/>
<path d="M6 13C6 12.0707 6 11.606 6.07686 11.2196C6.39248 9.63288 7.63288 8.39248 9.21964 8.07686C9.60604 8 10.0707 8 11 8H24H37C37.9294 8 38.394 8 38.7804 8.07686C40.3672 8.39248 41.6076 9.63288 41.9232 11.2196C42 11.606 42 12.0707 42 13C42 13.9293 42 14.394 41.9232 14.7804C41.6076 16.3671 40.3672 17.6075 38.7804 17.9231C38.394 18 37.9294 18 37 18H24H11C10.0707 18 9.60604 18 9.21964 17.9231C7.63288 17.6075 6.39248 16.3671 6.07686 14.7804C6 14.394 6 13.9293 6 13Z" stroke="#EDE8D8" stroke-width="4" stroke-linejoin="round"/>
<path d="M8 18.0002V32C8 35.7714 8 37.657 9.17158 38.8286C10.3431 40 12.2288 40 16 40H18H30H32C35.7712 40 37.6568 40 38.8284 38.8286C40 37.657 40 35.7714 40 32V18.0002" stroke="#EDE8D8" stroke-width="4" stroke-linecap="round" stroke-linejoin="round"/>
</svg>
