<svg width="48" height="48" viewBox="0 0 48 48" fill="none" xmlns="http://www.w3.org/2000/svg">
<path d="M32 24.0002C32 28.4184 28.4182 32.0002 24 32.0002C19.5817 32.0002 16 28.4184 16 24.0002C16 19.582 19.5817 16.0002 24 16.0002C28.4182 16.0002 32 19.582 32 24.0002Z" stroke="#EDE8D8" stroke-width="4"/>
<path d="M34 38.9692C31.1398 40.8836 27.7002 42.0002 24 42.0002C14.0589 42.0002 6 33.9414 6 24.0002C6 14.0591 14.0589 6.00024 24 6.00024C33.9412 6.00024 42 14.0591 42 24.0002C42 32.0002 32 32.0002 32 24.0002" stroke="#EDE8D8" stroke-width="4" stroke-linecap="round"/>
</svg>
