<svg width="36" height="36" viewBox="0 0 36 36" fill="none" xmlns="http://www.w3.org/2000/svg">
<path d="M13.5 27C13.5 27 13.5 31.5 18.0696 31.5C22.6393 31.5 22.6393 27 22.6393 27" stroke="#EDE8D8" stroke-width="3" stroke-linejoin="round"/>
<path d="M10.4946 11.5587L8.19256 23.4288C7.83348 25.2804 9.25168 27 11.1377 27H13.5H22.5H24.8623C26.7483 27 28.1665 25.2802 27.8074 23.4288L25.5052 11.5587C25.5018 11.5404 25.4985 11.5242 25.4943 11.506C25.3894 11.0475 23.79 4.5 18 4.5C12.21 4.5 10.6105 11.0475 10.5056 11.506C10.5015 11.5242 10.4982 11.5404 10.4946 11.5587Z" stroke="#EDE8D8" stroke-width="3" stroke-linejoin="round"/>
</svg>
