<svg width="18" height="18" viewBox="0 0 48 48" fill="none" stroke="#EDE8D8" xmlns="http://www.w3.org/2000/svg">
<path d="M20 20V22C20 23.8638 20 24.7956 19.6955 25.5308C19.2895 26.5108 18.5108 27.2896 17.5307 27.6956C16.7956 28 15.8638 28 14 28H13C10.1911 28 8.78662 28 7.77772 27.3258C7.34096 27.034 6.96596 26.659 6.67412 26.2222C6 25.2134 6 23.809 6 21V19.3137C6 17.6787 6 16.8612 6.30448 16.1261C6.60896 15.3911 7.18702 14.813 8.34314 13.6569L9.5207 12.4793C10.4356 11.5644 12 12.2124 12 13.5063V14.2427C12 15.2132 12.7868 16 13.7574 16H16C18.2091 16 20 17.7909 20 20Z" stroke-width="4" stroke-linejoin="round"/>
<path d="M42 32V34C42 35.8638 42 36.7956 41.6956 37.5308C41.2896 38.5108 40.5108 39.2896 39.5308 39.6956C38.7956 40 37.8638 40 36 40H35C32.191 40 30.7866 40 29.7778 39.3258C29.341 39.034 28.966 38.659 28.6742 38.2222C28 37.2134 28 35.809 28 33V31.3138C28 29.6788 28 28.8612 28.3044 28.1262C28.609 27.391 29.187 26.813 30.3432 25.6568L31.5208 24.4792C32.4356 23.5644 34 24.2124 34 25.5062V26.2426C34 27.2132 34.7868 28 35.7574 28H38C40.2092 28 42 29.7908 42 32Z" stroke-width="4" stroke-linejoin="round"/>
</svg>
