<svg width="32" height="32" viewBox="0 0 32 32" fill="none" xmlns="http://www.w3.org/2000/svg">
<rect width="32" height="32" rx="8" fill="#212121"/>
<path d="M13.3336 13.3333V14.6667C13.3336 15.9092 13.3336 16.5304 13.1306 17.0205C12.8599 17.6739 12.3408 18.1931 11.6874 18.4637C11.1973 18.6667 10.5761 18.6667 9.33358 18.6667H8.66691C6.7943 18.6667 5.85799 18.6667 5.18539 18.2172C4.89422 18.0227 4.64422 17.7727 4.44966 17.4815C4.00024 16.8089 4.00024 15.8727 4.00024 14V12.8758C4.00024 11.7858 4.00024 11.2408 4.20323 10.7507C4.40622 10.2607 4.79159 9.87531 5.56234 9.10456L6.34738 8.31952C6.95732 7.70958 8.00024 8.14156 8.00024 9.00416V9.49508C8.00024 10.1421 8.52478 10.6667 9.17182 10.6667H10.6669C12.1397 10.6667 13.3336 11.8606 13.3336 13.3333Z" stroke="#EDE8D8" stroke-width="2.66667" stroke-linejoin="round"/>
<path d="M28.0001 21.3333V22.6666C28.0001 23.9092 28.0001 24.5304 27.7971 25.0205C27.5265 25.6738 27.0073 26.193 26.3539 26.4637C25.8638 26.6666 25.2426 26.6666 24.0001 26.6666H23.3334C21.4607 26.6666 20.5245 26.6666 19.8519 26.2172C19.5607 26.0226 19.3107 25.7726 19.1162 25.4814C18.6667 24.8089 18.6667 23.8726 18.6667 22V20.8758C18.6667 19.7858 18.6667 19.2408 18.8697 18.7508C19.0727 18.2606 19.4581 17.8753 20.2289 17.1045L21.0139 16.3194C21.6238 15.7096 22.6667 16.1416 22.6667 17.0041V17.495C22.6667 18.1421 23.1913 18.6666 23.8383 18.6666H25.3334C26.8062 18.6666 28.0001 19.8605 28.0001 21.3333Z" stroke="#EDE8D8" stroke-width="2.66667" stroke-linejoin="round"/>
</svg>
