<svg width="48" height="48" viewBox="0 0 48 48" fill="none" xmlns="http://www.w3.org/2000/svg">
<path d="M6 20.0002C6 18.1365 6 17.2046 6.30448 16.4695C6.71046 15.4894 7.48916 14.7107 8.46926 14.3047C9.20436 14.0002 10.1362 14.0002 12 14.0002H36C37.8638 14.0002 38.7956 14.0002 39.5308 14.3047C40.5108 14.7107 41.2896 15.4894 41.6956 16.4695C42 17.2046 42 18.1365 42 20.0002V34.0002C42 37.7714 42 39.657 40.8284 40.8286C39.6568 42.0002 37.7712 42.0002 34 42.0002H32H16H14C10.2288 42.0002 8.34314 42.0002 7.17158 40.8286C6 39.657 6 37.7714 6 34.0002V20.0002Z" stroke="#EDE8D8" stroke-width="4" stroke-linejoin="round"/>
<path d="M16 14.0002V10.0002C16 7.7911 17.7909 6.00024 20 6.00024H28C30.2092 6.00024 32 7.7911 32 10.0002V14.0002" stroke="#EDE8D8" stroke-width="4" stroke-linejoin="round"/>
<path d="M6 20.0002C6.37228 22.6334 7.46998 25.0678 9.11116 27.143C12.3892 31.2882 17.8355 34.0002 24 34.0002C30.1644 34.0002 35.6108 31.2882 38.8888 27.143C40.53 25.0678 41.6278 22.6334 42 20.0002" stroke="#EDE8D8" stroke-width="4" stroke-linecap="round"/>
<path d="M23 26.0002H25" stroke="#EDE8D8" stroke-width="4" stroke-linecap="round" stroke-linejoin="round"/>
</svg>
