<svg width="48" height="48" viewBox="0 0 48 48" fill="none" xmlns="http://www.w3.org/2000/svg">
<path d="M18 14H30" stroke="#EDE8D8" stroke-width="4" stroke-linecap="round" stroke-linejoin="round"/>
<path d="M30 34.0002V28.0002" stroke="#EDE8D8" stroke-width="4" stroke-linecap="round" stroke-linejoin="round"/>
<path d="M30 22.0002H30.02" stroke="#EDE8D8" stroke-width="4" stroke-linecap="round" stroke-linejoin="round"/>
<path d="M24 22.0002H24.02" stroke="#EDE8D8" stroke-width="4" stroke-linecap="round" stroke-linejoin="round"/>
<path d="M18 22.0002H18.02" stroke="#EDE8D8" stroke-width="4" stroke-linecap="round" stroke-linejoin="round"/>
<path d="M18 28.0002H18.02" stroke="#EDE8D8" stroke-width="4" stroke-linecap="round" stroke-linejoin="round"/>
<path d="M24 28.0002H24.02" stroke="#EDE8D8" stroke-width="4" stroke-linecap="round" stroke-linejoin="round"/>
<path d="M24 34.0002H24.02" stroke="#EDE8D8" stroke-width="4" stroke-linecap="round" stroke-linejoin="round"/>
<path d="M18 34.0002H18.02" stroke="#EDE8D8" stroke-width="4" stroke-linecap="round" stroke-linejoin="round"/>
<path d="M10 14.0002C10 10.229 10 8.34338 11.1716 7.17182C12.3431 6.00024 14.2288 6.00024 18 6.00024H24H30C33.7712 6.00024 35.6568 6.00024 36.8284 7.17182C38 8.34338 38 10.229 38 14.0002V24.0002V34.0002C38 37.7714 38 39.657 36.8284 40.8286C35.6568 42.0002 33.7712 42.0002 30 42.0002H24H18C14.2288 42.0002 12.3431 42.0002 11.1716 40.8286C10 39.657 10 37.7714 10 34.0002V24.0002V14.0002Z" stroke="#EDE8D8" stroke-width="4" stroke-linejoin="round"/>
</svg>
