<svg width="48" height="48" viewBox="0 0 48 48" fill="none" xmlns="http://www.w3.org/2000/svg">
<path d="M30 5.99976C33.7712 5.99976 35.6568 5.99976 36.8284 7.17134C38 8.3429 38 10.2285 38 13.9998V33.9998C38 37.771 38 39.6566 36.8284 40.8282C35.6568 41.9998 33.7712 41.9998 30 41.9998H18C14.2288 41.9998 12.3431 41.9998 11.1716 40.8282C10 39.6566 10 37.771 10 33.9998V13.9998C10 10.2285 10 8.3429 11.1716 7.17134C12.3431 5.99976 14.2288 5.99976 18 5.99976H30Z" stroke="#EDE8D8" stroke-width="4" stroke-linejoin="round"/>
<path d="M18 5.99976V11.9998C18 14.2089 19.7909 15.9998 22 15.9998H26C28.2092 15.9998 30 14.2089 30 11.9998V5.99976" stroke="#EDE8D8" stroke-width="4" stroke-linecap="round" stroke-linejoin="round"/>
<path d="M18 29.9998L21 32.9998C21.5522 33.552 22.4478 33.552 23 32.9998L30 25.9998" stroke="#EDE8D8" stroke-width="4" stroke-linecap="round" stroke-linejoin="round"/>
</svg>
