<svg width="48" height="48" viewBox="0 0 48 48" fill="none" xmlns="http://www.w3.org/2000/svg">
<path d="M20.51 8.37632C19.6854 10.3553 17.3731 11.2493 15.4266 10.3509C12.2058 8.8644 8.86421 12.206 10.3507 15.4267C11.2491 17.3733 10.3551 19.6856 8.37613 20.5102C5.27387 21.8028 5.27387 26.1976 8.37613 27.4902C10.3551 28.3148 11.2491 30.6272 10.3507 32.5736C8.86421 35.7944 12.2058 39.136 15.4266 37.6494C17.3731 36.751 19.6854 37.645 20.51 39.624C21.8026 42.7264 26.1974 42.7264 27.49 39.624C28.3146 37.645 30.627 36.751 32.5734 37.6494C35.7942 39.136 39.1358 35.7944 37.6492 32.5736C36.7508 30.6272 37.6448 28.3148 39.6238 27.4902C42.7262 26.1976 42.7262 21.8028 39.6238 20.5102C37.6448 19.6856 36.7508 17.3733 37.6492 15.4267C39.1358 12.206 35.7942 8.8644 32.5734 10.3509C30.627 11.2493 28.3146 10.3553 27.49 8.37632C26.1974 5.27406 21.8026 5.27406 20.51 8.37632Z" stroke="currne" stroke-width="4" stroke-linecap="round" stroke-linejoin="round"/>
<path d="M30 24.0002C30 27.314 27.3138 30.0002 24 30.0002C20.6862 30.0002 18 27.314 18 24.0002C18 20.6864 20.6862 18.0002 24 18.0002C27.3138 18.0002 30 20.6864 30 24.0002Z" stroke="currne" stroke-width="4"/>
</svg>
