<svg width="48" height="48" viewBox="0 0 48 48" fill="none" xmlns="http://www.w3.org/2000/svg">
<path d="M35.4436 15.6262C36.7032 16.7959 37.3332 17.3807 37.6666 18.1454C38 18.9101 38 19.7696 38 21.4886V34C38 37.7712 38 39.6568 36.8284 40.8284C35.6568 42 33.7712 42 30 42H28H20H18C14.2288 42 12.3431 42 11.1716 40.8284C10 39.6568 10 37.7712 10 34V21.4886C10 19.7696 10 18.9101 10.3334 18.1454C10.6669 17.3807 11.2967 16.7959 12.5564 15.6262L17 11.5L18.5564 10.0548C21.1382 7.6573 22.4292 6.45856 24 6.45856C25.5708 6.45856 26.8618 7.6573 29.4436 10.0548L31 11.5L35.4436 15.6262Z" stroke="#EDE8D8" stroke-width="4" stroke-linejoin="round"/>
<path d="M20 42V34C20 31.7908 21.7908 30 24 30C26.2092 30 28 31.7908 28 34V42" stroke="#EDE8D8" stroke-width="4" stroke-linecap="round" stroke-linejoin="round"/>
</svg>
