<svg width="48" height="48" viewBox="0 0 48 48" fill="none" xmlns="http://www.w3.org/2000/svg">
<path d="M38 5.99976H18C14.2288 5.99976 12.3431 5.99976 11.1716 7.17134C10 8.3429 10 10.2285 10 13.9998V20.9998V33.9998" stroke="#EDE8D8" stroke-width="4" stroke-linecap="round" stroke-linejoin="round"/>
<path d="M28 33.9998V37.9998C28 40.209 29.7908 41.9998 32 41.9998C34.2092 41.9998 36 40.209 36 37.9998V17.9998V8.99976C36 7.3429 37.3432 5.99976 39 5.99976C40.6568 5.99976 42 7.3429 42 8.99976C42 10.6566 40.6568 11.9998 39 11.9998H37" stroke="#EDE8D8" stroke-width="4" stroke-linecap="round" stroke-linejoin="round"/>
<path d="M32 42H10C7.79086 42 6 40.2092 6 38C6 35.7908 7.79086 34 10 34H28" stroke="#EDE8D8" stroke-width="4" stroke-linecap="round" stroke-linejoin="round"/>
<path d="M18 13.9998H28" stroke="#EDE8D8" stroke-width="4" stroke-linecap="round" stroke-linejoin="round"/>
<path d="M18 22H28" stroke="#EDE8D8" stroke-width="4" stroke-linecap="round" stroke-linejoin="round"/>
</svg>
