<svg width="48" height="48" viewBox="0 0 48 48" fill="none" xmlns="http://www.w3.org/2000/svg">
<path d="M38 6.00018H18C14.2288 6.00018 12.3431 6.00018 11.1716 7.17176C10 8.34332 10 10.2289 10 14.0002V21.0002V34.0002" stroke="#FF4646" stroke-width="4" stroke-linecap="round" stroke-linejoin="round"/>
<path d="M28 34.0002V38.0002C28 40.2094 29.7908 42.0002 32 42.0002C34.2092 42.0002 36 40.2094 36 38.0002V18.0002V9.00018C36 7.34332 37.3432 6.00018 39 6.00018C40.6568 6.00018 42 7.34332 42 9.00018C42 10.657 40.6568 12.0002 39 12.0002H37" stroke="#FF4646" stroke-width="4" stroke-linecap="round" stroke-linejoin="round"/>
<path d="M32 42.0002H10C7.79086 42.0002 6 40.2094 6 38.0002C6 35.791 7.79086 34.0002 10 34.0002H28" stroke="#FF4646" stroke-width="4" stroke-linecap="round" stroke-linejoin="round"/>
<path d="M18 14.0002H28" stroke="#FF4646" stroke-width="4" stroke-linecap="round" stroke-linejoin="round"/>
<path d="M18 22.0002H28" stroke="#FF4646" stroke-width="4" stroke-linecap="round" stroke-linejoin="round"/>
</svg>
