<svg xmlns="http://www.w3.org/2000/svg" width="48" height="48" viewBox="0 0 48 48" fill="none">
<path d="M6 16C6 14.1362 6 13.2044 6.30448 12.4693C6.71046 11.4892 7.48916 10.7105 8.46926 10.3045C9.20436 10 10.1362 10 12 10H36C37.8638 10 38.7956 10 39.5308 10.3045C40.5108 10.7105 41.2896 11.4892 41.6956 12.4693C42 13.2044 42 14.1362 42 16V32C42 33.8638 42 34.7956 41.6956 35.5308C41.2896 36.5108 40.5108 37.2896 39.5308 37.6956C38.7956 38 37.8638 38 36 38H12C10.1362 38 9.20436 38 8.46926 37.6956C7.48916 37.2896 6.71046 36.5108 6.30448 35.5308C6 34.7956 6 33.8638 6 32V16Z" stroke="#EDE8D8" stroke-width="4" stroke-linejoin="round"/>
<path d="M8 12L21.366 23.6952C22.874 25.0148 25.126 25.0148 26.634 23.6952L40 12" stroke="#EDE8D8" stroke-width="4" stroke-linecap="round" stroke-linejoin="round"/>
</svg>