<svg width="48" height="48" viewBox="0 0 48 48" fill="none" xmlns="http://www.w3.org/2000/svg">
<path d="M6 17.9522C6 8.1097 8.10952 6.00018 17.952 6.00018H30.048C39.8904 6.00018 42 8.1097 42 17.9522V30.0482C42 39.8906 39.8904 42.0002 30.048 42.0002H17.952C8.10952 42.0002 6 39.8906 6 30.0482V17.9522Z" stroke="#EDE8D8" stroke-width="4"/>
<path d="M34.009 33.0046L25.4558 24.4514C18.4962 17.4918 15.5128 17.4918 8.55316 24.4514L6 27.0046" stroke="#EDE8D8" stroke-width="4" stroke-linecap="round"/>
<path d="M42 27.3406C37.8136 24.1336 34.9556 24.584 30.396 28.692" stroke="#EDE8D8" stroke-width="4" stroke-linecap="round"/>
<path d="M34 16.0002C34 17.1047 33.1046 18.0002 32 18.0002C30.8954 18.0002 30 17.1047 30 16.0002C30 14.8956 30.8954 14.0002 32 14.0002C33.1046 14.0002 34 14.8956 34 16.0002Z" stroke="#EDE8D8" stroke-width="4"/>
</svg>
