<svg width="48" height="48" viewBox="0 0 48 48" fill="none" xmlns="http://www.w3.org/2000/svg">
<path d="M6 24.0002C6 9.17718 9.177 6.00018 24 6.00018C38.823 6.00018 42 9.17718 42 24.0002C42 38.8232 38.823 42.0002 24 42.0002C9.177 42.0002 6 38.8232 6 24.0002Z" stroke="#EDE8D8" stroke-width="4"/>
<path d="M30 20.0002C30 23.314 27.3138 26.0002 24 26.0002C20.6862 26.0002 18 23.314 18 20.0002C18 16.6865 20.6862 14.0002 24 14.0002C27.3138 14.0002 30 16.6865 30 20.0002Z" stroke="#EDE8D8" stroke-width="4"/>
<path d="M12 38.0002C13.2764 33.3858 16.56 32.0002 24 32.0002C31.44 32.0002 34.7236 33.2852 36 37.8996" stroke="#EDE8D8" stroke-width="4" stroke-linecap="round"/>
</svg>
